<?xml version="1.0" standalone="no"?>
<!DOCTYPE svg PUBLIC "-//W3C//DTD SVG 20010904//EN"
 "http://www.w3.org/TR/2001/REC-SVG-20010904/DTD/svg10.dtd">
<svg version="1.0" xmlns="http://www.w3.org/2000/svg"
 width="105.000000pt" height="95.000000pt" viewBox="0 0 105.000000 95.000000"
 preserveAspectRatio="xMidYMid meet">

<g transform="translate(0.000000,95.000000) scale(0.100000,-0.100000)"
fill="#000000" stroke="none">
<path d="M166 893 c-3 -4 13 -26 36 -50 l43 -44 -44 -40 -45 -39 -42 41 -43
42 -7 -27 c-9 -38 21 -111 58 -137 17 -13 52 -24 78 -27 43 -4 54 -11 111 -68
l64 -64 -110 -110 c-69 -69 -103 -110 -92 -110 12 0 17 -8 17 -30 0 -25 4 -30
35 -36 19 -3 35 -11 35 -17 0 -7 48 37 108 96 l107 107 63 -63 c54 -54 62 -67
62 -100 0 -81 60 -137 146 -137 l48 0 -44 45 -44 45 42 42 42 42 40 -39 c34
-33 42 -37 51 -25 13 20 2 79 -20 109 -31 43 -67 63 -115 65 -41 1 -51 6 -101
56 -30 30 -55 59 -55 64 0 6 45 56 100 111 l100 101 -50 49 -50 49 -105 -104
-105 -105 -65 65 c-59 58 -65 68 -65 105 0 49 -29 98 -72 125 -32 19 -98 27
-112 13z"/>
<path d="M757 862 l-27 -28 50 -49 50 -49 30 29 c36 34 40 75 10 105 -30 30
-80 26 -113 -8z"/>
<path d="M93 150 c-11 -39 -18 -70 -15 -70 3 0 36 9 74 21 54 16 69 24 66 37
-2 10 -14 18 -30 20 -20 2 -28 10 -33 33 -4 18 -13 29 -24 29 -12 0 -22 -18
-38 -70z"/>
</g>
</svg>
